<svg width="70" height="70" viewBox="0 0 70 70" fill="none" xmlns="http://www.w3.org/2000/svg">
<path fill-rule="evenodd" clip-rule="evenodd" d="M17.5 13.125H52.5C57.1413 13.125 61.5925 14.9687 64.8744 18.2506C68.1563 21.5325 70 25.9837 70 30.625V43.75C70 48.3913 68.1563 52.8425 64.8744 56.1244C61.5925 59.4063 57.1413 61.25 52.5 61.25H17.5C12.8587 61.25 8.40752 59.4063 5.12563 56.1244C1.84375 52.8425 0 48.3913 0 43.75V30.625C0 25.9837 1.84375 21.5325 5.12563 18.2506C8.40752 14.9687 12.8587 13.125 17.5 13.125ZM17.5 17.5C14.019 17.5 10.6806 18.8828 8.21922 21.3442C5.75781 23.8056 4.375 27.144 4.375 30.625V43.75C4.375 47.231 5.75781 50.5694 8.21922 53.0308C10.6806 55.4922 14.019 56.875 17.5 56.875H52.5C55.981 56.875 59.3194 55.4922 61.7808 53.0308C64.2422 50.5694 65.625 47.231 65.625 43.75V30.625C65.625 27.144 64.2422 23.8056 61.7808 21.3442C59.3194 18.8828 55.981 17.5 52.5 17.5H17.5Z" fill="black"/>
<path d="M24.0625 26.25C23.4823 26.25 22.9259 26.4805 22.5157 26.8907C22.1055 27.3009 21.875 27.8573 21.875 28.4375V35H15.3125C14.7323 35 14.1759 35.2305 13.7657 35.6407C13.3555 36.0509 13.125 36.6073 13.125 37.1875C13.125 37.7677 13.3555 38.3241 13.7657 38.7343C14.1759 39.1445 14.7323 39.375 15.3125 39.375H21.875V45.9375C21.875 46.5177 22.1055 47.0741 22.5157 47.4843C22.9259 47.8945 23.4823 48.125 24.0625 48.125C24.6427 48.125 25.1991 47.8945 25.6093 47.4843C26.0195 47.0741 26.25 46.5177 26.25 45.9375V39.375H32.8125C33.3927 39.375 33.9491 39.1445 34.3593 38.7343C34.7695 38.3241 35 37.7677 35 37.1875C35 36.6073 34.7695 36.0509 34.3593 35.6407C33.9491 35.2305 33.3927 35 32.8125 35H26.25V28.4375C26.25 27.8573 26.0195 27.3009 25.6093 26.8907C25.1991 26.4805 24.6427 26.25 24.0625 26.25ZM56.875 30.625C56.875 31.7853 56.4141 32.8981 55.5936 33.7186C54.7731 34.5391 53.6603 35 52.5 35C51.3397 35 50.2269 34.5391 49.4064 33.7186C48.5859 32.8981 48.125 31.7853 48.125 30.625C48.125 29.4647 48.5859 28.3519 49.4064 27.5314C50.2269 26.7109 51.3397 26.25 52.5 26.25C53.6603 26.25 54.7731 26.7109 55.5936 27.5314C56.4141 28.3519 56.875 29.4647 56.875 30.625ZM52.5 43.75C52.5 44.9103 52.0391 46.0231 51.2186 46.8436C50.3981 47.6641 49.2853 48.125 48.125 48.125C46.9647 48.125 45.8519 47.6641 45.0314 46.8436C44.2109 46.0231 43.75 44.9103 43.75 43.75C43.75 42.5897 44.2109 41.4769 45.0314 40.6564C45.8519 39.8359 46.9647 39.375 48.125 39.375C49.2853 39.375 50.3981 39.8359 51.2186 40.6564C52.0391 41.4769 52.5 42.5897 52.5 43.75Z" fill="black"/>
</svg>
